# xmcd
#
# Track frame offsets: 
#        150
#        17256
#        35414
#        50118
#        73372
#        93403
#        109385
#        124990
#        141571
#        161826
#        173758
#        197612
#
# Disc length: 2788 seconds
#
# Revision: 0
# Processed by: cddbd v1.5.2PL0 Copyright (c) Steve Scherf et al.
# Submitted via: ExactAudioCopy v1.0b4
#
DISCID=b30ae20c
DTITLE=Sweet Marta and The Blues Workers - Come Love
DYEAR=2014
DGENRE=Blues
TTITLE0=Wild About You Baby
TTITLE1=Come Love
TTITLE2=Poodle Bites
TTITLE3=Telephone Blues
TTITLE4=Tee Ni Nee Ni Nu
TTITLE5=Wang Dang Doodle
TTITLE6=Sugar Coated Love
TTITLE7=Ding Dong Daddy
TTITLE8=Say It's Not So
TTITLE9=Blowin' The Family Jewels
TTITLE10=You Were Wrong
TTITLE11=When The Sun Goes Never Down
EXTD=
EXTT0=
EXTT1=
EXTT2=
EXTT3=
EXTT4=
EXTT5=
EXTT6=
EXTT7=
EXTT8=
EXTT9=
EXTT10=
EXTT11=
PLAYORDER=
